<?xml version="1.0" encoding="UTF-8" standalone="no"?>
<svg
   width="600"
   height="191"
   version="1.1"
   id="svg5"
   sodipodi:docname="odoo.svg"
   inkscape:version="1.3 (0e150ed6c4, 2023-07-21)"
   xmlns:inkscape="http://www.inkscape.org/namespaces/inkscape"
   xmlns:sodipodi="http://sodipodi.sourceforge.net/DTD/sodipodi-0.dtd"
   xmlns="http://www.w3.org/2000/svg"
   xmlns:svg="http://www.w3.org/2000/svg">
  <defs
     id="defs5" />
  <sodipodi:namedview
     id="namedview5"
     pagecolor="#ffffff"
     bordercolor="#000000"
     borderopacity="0.25"
     inkscape:showpageshadow="2"
     inkscape:pageopacity="0.0"
     inkscape:pagecheckerboard="0"
     inkscape:deskcolor="#d1d1d1"
     inkscape:zoom="2.0466667"
     inkscape:cx="300"
     inkscape:cy="96.00977"
     inkscape:window-width="1920"
     inkscape:window-height="1009"
     inkscape:window-x="1912"
     inkscape:window-y="-8"
     inkscape:window-maximized="1"
     inkscape:current-layer="svg5" />
  <path
     id="circle1"
     d="M 527.5 46 A 72.400002 72.400002 0 0 0 455.09961 118.40039 A 72.400002 72.400002 0 0 0 527.5 190.80078 A 72.400002 72.400002 0 0 0 599.90039 118.40039 A 72.400002 72.400002 0 0 0 527.5 46 z M 527.5 75.699219 C 551.09998 75.699219 570.19922 94.800414 570.19922 118.40039 C 570.19922 142.00037 551.09998 161.09961 527.5 161.09961 C 503.90002 161.09961 484.80078 142.00037 484.80078 118.40039 C 484.80078 94.800414 503.90002 75.699219 527.5 75.699219 z "
     style="fill:#888888;fill-opacity:1" />
  <path
     id="circle2"
     style="fill:#888888;fill-opacity:1"
     d="M 374 46 A 72.400002 72.400002 0 0 0 301.59961 118.40039 A 72.400002 72.400002 0 0 0 374 190.80078 A 72.400002 72.400002 0 0 0 446.40039 118.40039 A 72.400002 72.400002 0 0 0 374 46 z M 374 75.699219 C 397.59998 75.699219 416.69922 94.800414 416.69922 118.40039 C 416.69922 142.00037 397.59998 161.09961 374 161.09961 C 350.40002 161.09961 331.30078 142.00037 331.30078 118.40039 C 331.30078 94.800414 350.40002 75.699219 374 75.699219 z " />
  <path
     id="path3"
     d="M 280.59961 0 A 14.34 14.34 0 0 0 266.19922 14.400391 L 266.19922 60.599609 C 253.99923 51.499618 238.89998 46 222.5 46 C 182.50004 46 150.09961 78.400431 150.09961 118.40039 C 150.09961 158.40035 182.50004 190.80078 222.5 190.80078 C 262.49996 190.80078 294.90039 158.40035 294.90039 118.40039 L 294.90039 117.80078 C 295.00039 117.60078 295 117.29961 295 117.09961 L 295 14.400391 C 295 6.5003985 288.4996 0 280.59961 0 z M 222.5 75.699219 A 42.700001 42.700001 0 0 1 265.19922 118.40039 A 42.700001 42.700001 0 0 1 222.5 161.09961 A 42.700001 42.700001 0 0 1 179.80078 118.40039 A 42.700001 42.700001 0 0 1 222.5 75.699219 z "
     style="fill:#888888;fill-opacity:1" />
  <path
     id="circle4"
     d="M 72.400391 45.800781 A 72.400002 72.400002 0 0 0 0 118.19922 A 72.400002 72.400002 0 0 0 72.400391 190.59961 A 72.400002 72.400002 0 0 0 144.80078 118.19922 A 72.400002 72.400002 0 0 0 72.400391 45.800781 z M 71.699219 75.800781 A 42.700001 42.700001 0 0 1 114.40039 118.5 A 42.700001 42.700001 0 0 1 71.699219 161.19922 A 42.700001 42.700001 0 0 1 29 118.5 A 42.700001 42.700001 0 0 1 71.699219 75.800781 z "
     style="fill:#7163a0;fill-opacity:1" />
</svg>
